<svg xmlns="http://www.w3.org/2000/svg" width="1000" height="190" viewBox="0 0 1000 190"><title>可微性关系图</title><desc>依据2008年大纲解析PDF第105页（书内第100页）重画。</desc><defs>
<pattern id="hatch" width="8" height="8" patternUnits="userSpaceOnUse"><path d="M-2 2L2-2M0 8L8 0M6 10L10 6" stroke="black" stroke-width="0.8"/></pattern>
<marker id="arrow" viewBox="0 0 10 6" refX="9" refY="3" markerWidth="9" markerHeight="6" orient="auto-start-reverse"><path d="M0 0L10 3L0 6Z" fill="black"/></marker>
</defs><g font-family="Noto Serif CJK SC, Noto Serif, serif"><text x="215" y="25" font-size="20" text-anchor="middle">一元函数</text><text x="70" y="115" font-size="18" text-anchor="middle">可微</text><text x="215" y="70" font-size="18" text-anchor="middle">连续</text><text x="215" y="161" font-size="18" text-anchor="middle">可导</text><text x="368" y="115" font-size="18" text-anchor="middle">极限存在</text><path d="M98.25100254978905 102.7993410771371L180.25100254978904 75.7993410771371" fill="none" stroke="black" stroke-width="1.5" marker-end="url(#arrow)"/><path d="M177.74899745021096 68.2006589228629L95.74899745021095 95.2006589228629" fill="none" stroke="black" stroke-width="1.5" marker-end="url(#arrow)"/><path d="M133.74899745021096 74.7006589228629L139.74899745021096 88.7006589228629" fill="none" stroke="black" stroke-width="1.5" /><path d="M97.9073911604954 130.84788330434233L178.9073911604954 153.84788330434233" fill="none" stroke="black" stroke-width="1.5" marker-end="url(#arrow)"/><path d="M181.0926088395046 146.15211669565767L100.0926088395046 123.15211669565768" fill="none" stroke="black" stroke-width="1.5" marker-end="url(#arrow)"/><path d="M216.0 143.0L216.0 84.0" fill="none" stroke="black" stroke-width="1.5" marker-end="url(#arrow)"/><path d="M208.0 84.0L208.0 143.0" fill="none" stroke="black" stroke-width="1.5" marker-end="url(#arrow)"/><path d="M205.0 106.5L211.0 120.5" fill="none" stroke="black" stroke-width="1.5" /><path d="M248.60725388158548 76.74970108803906L318.6072538815855 102.74970108803906" fill="none" stroke="black" stroke-width="1.5" marker-end="url(#arrow)"/><path d="M321.3927461184145 95.25029891196094L251.39274611841452 69.25029891196094" fill="none" stroke="black" stroke-width="1.5" marker-end="url(#arrow)"/><path d="M283.3927461184145 75.25029891196094L289.3927461184145 89.25029891196094" fill="none" stroke="black" stroke-width="1.5" /><path d="M249.29597189948677 151.78423794650135L322.29597189948674 126.78423794650134" fill="none" stroke="black" stroke-width="1.5" marker-end="url(#arrow)"/><path d="M319.70402810051326 119.21576205349866L246.70402810051323 144.21576205349865" fill="none" stroke="black" stroke-width="1.5" marker-end="url(#arrow)"/><path d="M280.20402810051326 124.71576205349865L286.20402810051326 138.71576205349865" fill="none" stroke="black" stroke-width="1.5" /><text x="715" y="25" font-size="20" text-anchor="middle">多元函数</text><text x="512" y="115" font-size="18" text-anchor="middle">偏导数连续</text><text x="638" y="115" font-size="18" text-anchor="middle">可微</text><text x="762" y="65" font-size="18" text-anchor="middle">连续</text><text x="762" y="161" font-size="18" text-anchor="middle">偏导数存在</text><text x="920" y="115" font-size="18" text-anchor="middle">极限存在</text><path d="M571.0 112.0L606.0 112.0" fill="none" stroke="black" stroke-width="1.5" marker-end="url(#arrow)"/><path d="M606.0 104.0L571.0 104.0" fill="none" stroke="black" stroke-width="1.5" marker-end="url(#arrow)"/><path d="M585.5 97.0L591.5 111.0" fill="none" stroke="black" stroke-width="1.5" /><path d="M667.6881183206315 98.62632824431938L725.6881183206315 71.62632824431938" fill="none" stroke="black" stroke-width="1.5" marker-end="url(#arrow)"/><path d="M722.3118816793685 64.37367175568062L664.3118816793685 91.37367175568062" fill="none" stroke="black" stroke-width="1.5" marker-end="url(#arrow)"/><path d="M690.3118816793685 70.87367175568062L696.3118816793685 84.87367175568062" fill="none" stroke="black" stroke-width="1.5" /><path d="M663.8800042399873 128.39199321602035L703.8800042399873 153.39199321602035" fill="none" stroke="black" stroke-width="1.5" marker-end="url(#arrow)"/><path d="M708.1199957600127 146.60800678397965L668.1199957600127 121.60800678397965" fill="none" stroke="black" stroke-width="1.5" marker-end="url(#arrow)"/><path d="M685.1199957600127 127.10800678397965L691.1199957600127 141.10800678397965" fill="none" stroke="black" stroke-width="1.5" /><path d="M799.5675125534095 71.73469941432516L872.5675125534095 99.73469941432516" fill="none" stroke="black" stroke-width="1.5" marker-end="url(#arrow)"/><path d="M875.4324874465905 92.26530058567484L802.4324874465905 64.26530058567484" fill="none" stroke="black" stroke-width="1.5" marker-end="url(#arrow)"/><path d="M835.9324874465905 71.26530058567484L841.9324874465905 85.26530058567484" fill="none" stroke="black" stroke-width="1.5" /><path d="M821 146L878 121" fill="none" stroke="black" stroke-width="1.5" marker-end="url(#arrow)"/><path d="M846.5 126.5L852.5 140.5" fill="none" stroke="black" stroke-width="1.5" /><path d="M881 130L824 155" fill="none" stroke="black" stroke-width="1.5" marker-end="url(#arrow)"/><path d="M849.5 135.5L855.5 149.5" fill="none" stroke="black" stroke-width="1.5" /></g></svg>