<svg xmlns="http://www.w3.org/2000/svg" width="310" height="240" viewBox="0 0 310 240"><title>图07-平行截面体积</title><desc>依据2008年大纲解析PDF第68页（书内第63页）重画。</desc><defs>
<pattern id="hatch" width="8" height="8" patternUnits="userSpaceOnUse"><path d="M-2 2L2-2M0 8L8 0M6 10L10 6" stroke="black" stroke-width="0.8"/></pattern>
<marker id="arrow" viewBox="0 0 10 6" refX="9" refY="3" markerWidth="9" markerHeight="6" orient="auto-start-reverse"><path d="M0 0L10 3L0 6Z" fill="black"/></marker>
</defs><g font-family="Noto Serif CJK SC, Noto Serif, serif"><path d="M12 195L285 195" fill="none" stroke="black" stroke-width="1.5" marker-end="url(#arrow)"/><path d="M38 220L38 12" fill="none" stroke="black" stroke-width="1.5" marker-end="url(#arrow)"/><text x="25" y="213" font-size="18" text-anchor="middle" font-style="italic">O</text><text x="285" y="215" font-size="18" text-anchor="middle" font-style="italic">x</text><text x="53" y="20" font-size="18" text-anchor="middle" font-style="italic">y</text><path d="M75 73C105 45 132 81 166 76S215 61 249 65" fill="none" stroke="black" stroke-width="1.5" /><path d="M75 130C105 116 126 153 166 140S214 146 249 139" fill="none" stroke="black" stroke-width="1.5" /><ellipse cx="75" cy="102" rx="16" ry="29" fill="none" stroke="black" stroke-width="1.5"/><ellipse cx="249" cy="102" rx="16" ry="37" fill="none" stroke="black" stroke-width="1.5"/><ellipse cx="161" cy="108" rx="20" ry="34" fill="url(#hatch)" stroke="black" stroke-width="1.5"/><path d="M75 76L75 195" fill="none" stroke="black" stroke-width="1.5"  stroke-dasharray="6 4"/><path d="M161 71L161 195" fill="none" stroke="black" stroke-width="1.5"  stroke-dasharray="6 4"/><path d="M249 66L249 195" fill="none" stroke="black" stroke-width="1.5"  stroke-dasharray="6 4"/><text x="161" y="60" font-size="18" text-anchor="middle" font-style="italic">S(x)</text><text x="75" y="214" font-size="18" text-anchor="middle" font-style="italic">a</text><text x="161" y="214" font-size="18" text-anchor="middle" font-style="italic">x</text><text x="249" y="214" font-size="18" text-anchor="middle" font-style="italic">b</text></g></svg>